<?xml version="1.0" encoding="UTF-8" standalone="no"?>
<!DOCTYPE svg PUBLIC "-//W3C//DTD SVG 1.1//EN" "http://www.w3.org/Graphics/SVG/1.1/DTD/svg11.dtd">
<!-- Generated by graphviz version 2.40.1 (20161225.0304)
 -->
<!-- Title: %0 Pages: 1 -->
<svg width="357pt" height="335pt" viewBox="0.00 0.00 356.75 335.20" xmlns="http://www.w3.org/2000/svg" xmlns:xlink="http://www.w3.org/1999/xlink">
<g id="graph0" class="graph" transform="scale(1 1) rotate(0) translate(4 331.2)">
<title>%0</title>
<polygon fill="#ffffff" stroke="transparent" points="-4,4 -4,-331.2 352.7534,-331.2 352.7534,4 -4,4"/>
<text text-anchor="middle" x="174.3767" y="-8.2" font-family="Times,serif" font-size="14.00" fill="#000000">Données issues de geoportail avec  l'itinéraire le plus court</text>
<!-- Lyon -->
<g id="node1" class="node">
<title>Lyon</title>
<ellipse fill="none" stroke="#000000" cx="169.6082" cy="-309.2" rx="31.3429" ry="18"/>
<text text-anchor="middle" x="169.6082" y="-305" font-family="Times,serif" font-size="14.00" fill="#000000">Lyon</text>
</g>
<!-- Grenoble -->
<g id="node2" class="node">
<title>Grenoble</title>
<ellipse fill="none" stroke="#000000" cx="128.6082" cy="-220.4" rx="46.9304" ry="18"/>
<text text-anchor="middle" x="128.6082" y="-216.2" font-family="Times,serif" font-size="14.00" fill="#000000">Grenoble</text>
</g>
<!-- Lyon&#45;&#45;Grenoble -->
<g id="edge1" class="edge">
<title>Lyon--Grenoble</title>
<path fill="none" stroke="#000000" d="M161.508,-291.656C154.3668,-276.1892 144.01,-253.7579 136.832,-238.2115"/>
<text text-anchor="middle" x="174.8035" y="-260.6" font-family="Times,serif" font-size="14.00" fill="#000000">106 km</text>
</g>
<!-- Aix -->
<g id="node3" class="node">
<title>Aix</title>
<ellipse fill="none" stroke="#000000" cx="209.6082" cy="-131.6" rx="27" ry="18"/>
<text text-anchor="middle" x="209.6082" y="-127.4" font-family="Times,serif" font-size="14.00" fill="#000000">Aix</text>
</g>
<!-- Lyon&#45;&#45;Aix -->
<g id="edge2" class="edge">
<title>Lyon--Aix</title>
<path fill="none" stroke="#000000" d="M185.2104,-293.246C190.0164,-287.3959 194.7821,-280.4266 197.6082,-273.2 213.9624,-231.3821 213.1282,-177.4548 211.2794,-149.7723"/>
<text text-anchor="middle" x="232.8035" y="-216.2" font-family="Times,serif" font-size="14.00" fill="#000000">292 km</text>
</g>
<!-- Grenoble&#45;&#45;Aix -->
<g id="edge4" class="edge">
<title>Grenoble--Aix</title>
<path fill="none" stroke="#000000" d="M134.9546,-202.3663C139.4241,-191.4502 146.2175,-177.7288 155.2176,-167.6 164.3188,-157.3575 176.9676,-148.7548 187.7772,-142.53"/>
<text text-anchor="middle" x="176.8035" y="-171.8" font-family="Times,serif" font-size="14.00" fill="#000000">239 km</text>
</g>
<!-- Nice -->
<g id="node4" class="node">
<title>Nice</title>
<ellipse fill="none" stroke="#000000" cx="123.6082" cy="-42.8" rx="29.0318" ry="18"/>
<text text-anchor="middle" x="123.6082" y="-38.6" font-family="Times,serif" font-size="14.00" fill="#000000">Nice</text>
</g>
<!-- Grenoble&#45;&#45;Nice -->
<g id="edge3" class="edge">
<title>Grenoble--Nice</title>
<path fill="none" stroke="#000000" d="M128.1013,-202.3934C127.143,-168.3537 125.0759,-94.9307 124.1165,-60.8543"/>
<text text-anchor="middle" x="147.8035" y="-127.4" font-family="Times,serif" font-size="14.00" fill="#000000">293 km</text>
</g>
<!-- Aix&#45;&#45;Nice -->
<g id="edge6" class="edge">
<title>Aix--Nice</title>
<path fill="none" stroke="#000000" d="M192.1606,-117.4531C184.5641,-111.0364 175.7057,-103.1962 168.2176,-95.6 156.7604,-83.9772 144.8865,-69.8021 136.2722,-59.0667"/>
<text text-anchor="middle" x="189.8035" y="-83" font-family="Times,serif" font-size="14.00" fill="#000000">174 km</text>
</g>
<!-- Marseille -->
<g id="node5" class="node">
<title>Marseille</title>
<ellipse fill="none" stroke="#000000" cx="219.6082" cy="-42.8" rx="47.5042" ry="18"/>
<text text-anchor="middle" x="219.6082" y="-38.6" font-family="Times,serif" font-size="14.00" fill="#000000">Marseille</text>
</g>
<!-- Aix&#45;&#45;Marseille -->
<g id="edge5" class="edge">
<title>Aix--Marseille</title>
<path fill="none" stroke="#000000" d="M211.6319,-113.63C213.3554,-98.325 215.8208,-76.4322 217.5533,-61.0481"/>
<text text-anchor="middle" x="233.3035" y="-83" font-family="Times,serif" font-size="14.00" fill="#000000">30 km</text>
</g>
</g>
</svg>